<?xml version="1.0" standalone="no"?>
<!DOCTYPE svg PUBLIC "-//W3C//DTD SVG 20010904//EN"
 "http://www.w3.org/TR/2001/REC-SVG-20010904/DTD/svg10.dtd">
<svg version="1.0" xmlns="http://www.w3.org/2000/svg"
 width="16.000000pt" height="16.000000pt" viewBox="0 0 16.000000 16.000000"
 preserveAspectRatio="xMidYMid meet">

<g transform="translate(0.000000,16.000000) scale(0.100000,-0.100000)"
fill="#000000" stroke="none">
<path d="M129 128 c-1 -10 -3 -22 -4 -28 -1 -5 -3 -14 -4 -19 -1 -6 -13 -6
-33 0 -17 5 -32 8 -32 6 -1 -1 -8 -16 -18 -34 l-16 -31 29 -13 c23 -9 36 -9
55 0 14 6 22 16 19 21 -3 6 0 10 8 10 28 0 36 54 12 86 -13 17 -15 17 -16 2z"/>
<path d="M0 61 c0 -6 4 -13 10 -16 6 -3 7 1 4 9 -7 18 -14 21 -14 7z"/>
</g>
</svg>
