<svg xmlns="http://www.w3.org/2000/svg" width="12500" height="5008" viewBox="0 0 12500 5008">
  <defs>
    <style>
      .cls-1 {
        fill: #fff;
        fill-rule: evenodd;
      }
    </style>
  </defs>
  <path id="Фигура_1" data-name="Фигура 1" class="cls-1" d="M5925,0q-1.995,8.5-4,17h-14l-34,5c-23.37,6.61-47.06,13.405-68,22-7.97,3.271-29.23,5.84-30,15-3.62,6.141-.02,21.313-6,25-9.22-6.327-40.98,3.3-43,9,11.79,3.459,24.89,11.509,28,24h-30c-6.43,3.833-26.77,3.676-35,7-20.36,8.224-32.64,20.232-47,34q1.995,12.5,4,25h41c0.16,27.133-10.47,59.94-16,84-14.8,1.117-36.86,17.361-49,8-0.96-1.418-.98-3.273-1-6,11.73-14.922,19.8-35.572,20-62-7.71-5.385-13.35-15.454-19-23-8.91-11.886-21.08-22.122-30-34-2.24-2.983-9.35-14.742-12-16h-18q-10.005,12-20,24c-0.28,24.3,4.95,38.609,15,52,5.59,7.441,16.97,11.178,18,23-1.44,2.3-.82,6.2-2,9-1.27,3.009-4.25,5.349-6,8-12.2-5.8-25.01-11.242-40-15l-23-2c-7.58-1.65-23.85-2.966-33-1-9.32,2-19.77,4.318-29,5q-1.995,15-4,30c-33.44-.927-60.25,9-83,19-49.65,21.827-86.13,54.576-128,84-28.97,20.36-57.9,41.65-102,47,1.41-11.408,6.73-18.2,7-32-3.25-3.319-5.26-8.214-9-11-3.48-2.591-7.08-3.938-10-7-11.56.472-23.51,4.841-33,8-27.94,9.3-52.48,16.7-76,29-95.89,50.129-164.06,123.222-225,208-17.98,25.012-37.01,49.458-55,75-6.63,9.41-18.82,16.667-19,32,2.91,4.4,4.55,9.906,7,14,1.75-.631.97-0.193,2-1,6.7-1.792,18.62-12.077,24-10,7.45,5.074,4.24,31.929,4,44,6.39,0.161,12.5-1.084,16-4,8.21-10.988,11.29-26.954,17-40,11.04-25.214,22.75-50.486,34-76,18.16-41.2,44.34-77.974,70-112,9.98-13.23,25.58-22.114,37-34l22,4c-0.82,11.6-9.92,20.819-15,29-11.34,18.276-20.82,36.614-33,54-5.77,8.239-16.74,17.065-19,28,2.6,3.885,3.4,12.823,4,18h5c2.39-3.65,32.68-31.58,36-33h8c6.19,3.856,22.38,3.145,30,4v13c-36.78,21.139-70.22,52.768-95,86-16.25,21.8-33.02,42.022-52,61q-7.005,7.5-14,15c-13.04,9.842-25.59,18.1-40,27-17.77,10.97-53.08,28.919-78,31-1.87,36.167-35.98,63.933-53,87-2.48,3.361-15.46,24.987-17,26h-14c-3.57-5.395-4.19-10.893-4-21,2.33-4.025-.23-11.527,1-17q3-21.5,6-43c10.28-36.363,21.18-69.334,39-98,25.22-40.583,57.93-74.654,85-113,14.62-20.7,27.41-42.281,42-63,15.12-21.474,33.19-40.98,49-62,9.56-12.714,22.27-23.131,32-36q7.995-7.5,16-15a241.5,241.5,0,0,1,45-45q7.995-8.5,16-17c14.45-10.936,26.47-24.04,41-35,6.72-5.069,12.26-12.923,19-18,22.55-16.987,43.36-36.352,66-53,97.5-71.686,200.54-139.47,318-191,98.39-43.165,214.82-68.725,317-107,11.05-4.138,30.66-6.227,45-3,7.05,1.588,21.44,4.434,31,2,5.19-1.321,12.99-5.233,16-9,1.09-1.361,1.65-5.14,3-6h151ZM7113,400c45.24,1.554,50.36,43.207,77,63,13.68,10.165,28.39,18.015,42,28,13.86,10.174,25.25,23.6,39,34,9.39,7.1,20.72,22.335,28,32,6.77,8.993,16.29,16.859,23,26,17.62,23.992,34.6,47.791,52,72,9.3,12.943,20.21,28.469,33,38,9.43,7.031,17.81,15.165,27,22,2.25,1.67,6.37,2.874,8,5,2.82,3.69,2.35,10.542,4,15,3.88,10.487,8.12,22.512,12,33,1.89,5.121,1.5,10.185,4,15,2.42,4.665,7.99,8.741,11,13,8.89,12.582,17.59,25.389,26,38,17.47,26.189,31.51,54.926,48,82,4.68,7.681,6.84,16,11,24,16.27,31.295,29.3,64.1,44,98,24.21,55.83,42.8,115.26,63,176,11.62,34.93,23.93,71.74,34,108,8.79,31.64,1,77.82,1,113v32c8.13,36.59,13.21,70.33,22,107,5.59,23.33,2.74,48.98,8,73,3.82,17.43,3.94,37.95,4,58q0.495,11.505,1,23c-3.21,14.8.29,33.06-5,46-3.15,7.72-17.86,14.05-21,21v26c3.76,6.1-.71,19,1,27l3,60c-8,5.09-21.17,16.68-21,30,2.16,3.48-.05,10.08,1,15,2.45,11.49,2.97,26.4,3,39-5,3.19-20.27,17.42-21,24,2.29,3.7-.1,10.83,1,16,2.84,13.29,3.05,28.99,3,44q-10.5,10.005-21,20c-5.4,9.47-5.46,21.23-9,32-11.24,34.23-16.3,74.68-27,110-3.88,12.82-3.65,28.09-10,39-16.12,27.68-35.28,54.7-52,82-4.31,7.03-6.19,14.67-10,22-9.49,18.25-19.32,38.46-30,56-4.3,7.06-5.71,14.94-10,22-10.86,17.88-18.9,37.73-30,56-30.16,49.64-56.08,101.92-87,151-11.89,18.87-27.59,34.59-43,50q-7.005,7.5-14,15c-7.47,5.64-16.41,12.61-22,20-13.36,17.66-27.37,33.02-39,53-3.2-1.35-16.33-8.89-16-9,10.88-17.18,27.88-30.82,40-47,29.08-38.83,58.74-76.02,86-117,12.2-18.34,25.97-37.68,35-59,8.94-21.11.47-51.53,6-77,1.88-8.65-.14-19.1,2-29,4.93-22.83,4.61-75.1-2-95-2.03-6.11-5.95-11.89-9-17-2.67,1.33-5.33,2.67-8,4,0.14,38.19-14,63.1-27,88-2,3.82-8.74,23.42-11,25h-21q-8.505-10.5-17-21a17.542,17.542,0,0,1-8,4c-0.08,11.11-5.54,23.2-14,26-8.29,6.93-37.09-2.76-40-9v-15c1.63-2.68.84-6.54,2-10,1.67-4.98,6.09-12.95,10-16,6.51-4.89,17.62-4.4,24-9,11.09-7.99,12.8-23.2,22-33q-1.995-6.495-4-13h-6c-4.65-2.91-28.92-3.85-36-4-9.55,16.24-26.96,26.32-38,41a186.755,186.755,0,0,0-24,42c-34.54-.36-60.74,9.75-81,24-26.19,18.42-50.59,57.69-70,84-6.88,9.33-14.83,20.1-24,27-37.18,27.98-92.12,39.26-132,64-6.6,4.09-36.7,21.16-39,26v30c-3.25,5.57-.34,14.9-2,22q-4.005,22.995-8,46c-7.86,27.74-13.92,55.57-23,83-4.39,13.27-11.09,28.17-12,44h37c5.81-2.03,12.65-8.73,18-12,8.73-5.33,17.81-8.22,27-13,7.03-3.66,14.76-8.81,22-12,24.46-10.76,48.34-22.61,72-33,8.81-3.87,17.01-6.15,25-11,12.75-7.74,26.54-14.71,39-23,7.08-4.71,12.03-12.37,23-13,3.86,2.4,41.33,4,49,4q1.995,22.995,4,46c23.49-.03,59.21,14.77,62,34-67.32,31-98.68,103.44-158,143-10.19,6.79-21.37,10.53-32,17-32.78,19.94-67,37.77-100,58-95.46,58.53-193.7,113.04-303,158-38.3,15.75-80.67,25.41-122,37-13.81,3.87-26.01,4.09-40,8-43.73,12.22-93.34,14.27-140,25-16.97,3.9-34.85,2.42-51,6-26.15,5.8-54.33,1.43-80,7q-42.495,1.995-85,4h-36c-18.35,3.9-47.45,1.68-66,0-34.53-3.12-69.69,2.78-101-4-9.26-2-18.99-.26-27-2-17.42-3.78-36.82-.13-54-4-12.92-2.91-27.15-1.76-41-5-34.7-8.1-71.25-8.52-105-18-39.38-11.06-80.65-17.07-117-32-116.47-47.83-226.78-98.68-329-161-37.03-22.57-76.38-40.72-113-63-14.84-9.03-32-13.89-46-24-3.72-2.69-6.18-7.27-9-11-6.6-8.74-16.2-15-23-24q-7.5-7.005-15-14-10.5-11.505-21-23-4.995-4.5-10-9c-4.96-6.58-11.28-15.37-18-20-5.07-3.5-10.75-4.74-16-8-12.69-7.87-25.67-16.32-38-25-21.55-15.17-40.09-34.2-61-50q-6-6.495-12-13c-9.9-9.9-20.46-18.7-29-30-4.93-6.53-13.05-11.45-18-18-14.11-18.68-29.01-35.93-43-55-17.5-23.87-36.97-47.66-53-73-22.01-34.8-42.48-70.73-64-106-8.15-13.36-12.83-27.55-21-41-23.1-38.04-41.06-79.71-62-120-28.72-55.24-61.96-106.77-87-166-8.71-20.61-13.45-43.39-19-67-2.58-10.97.03-22.85-3-33-14.25-47.8-27.28-96.8-41-146-5.03-18.04-6.75-37.09-11-55-5.63-23.73-7.02-69.02,1-90,2.78-7.28,8.06-19.88,15-19,5.61,9.01,4.01,23.95,7,35,7.57,27.96,12.71,56.29,26,78,2.71,4.42,8.02,16.95,12,19h27c5.28-3.15,14.74-1.26,21-3,13.81-3.85,26.86-10.89,41-13,8.91,18.4,24.25,34.43,41,45,11.15,7.04,37.32,21.44,42,33v111c3.7,4.95,4.36,11.96,7,18,5.24,11.98,11.07,25.61,18,37,15.68,25.79,29.05,52.77,45,79,5.28,8.69,15.81,24.64,18,35q-2.505,72.99-5,146c1.79,9.8,8.32,19.6,12,28,9.95,22.74,19.67,44.77,32,65,10.9,17.89,17.18,37.2,28,55,21.16,34.81,41.52,70.99,63,105,11.77,18.63,23.59,35.77,36,53,5.58,7.75,11.55,18.38,20,23l105,33c7.43-12.28,17.29-23.82,25-36,14.62-23.11,25.55-47.76,40-71,5.69-9.16,11.66-18.96,18-28,1.88-2.68,6.71-6.08,8-9v-21c-2.34-3.62.04-10.86-1-16-8.75-43.14,7.49-44.17,24-66,5.39-7.13,9.84-19.87,22-20,3.97-2.53,9.47-1.97,14-4,2.37-1.06,24.29-18.6,25-20v-29c-3.97-6.81-.08-19.61-2-28-3.55-15.5-3.71-31.9-8-47-7.04-24.76-13.43-49.66-23-73-6.04-14.72-14.46-32-17-49,12.38-8.44,18.06-24.98,26-38,17.46-28.6,30.97-63.32,51-90,21.49-28.63,62.12-39.55,91-61,15.97-11.86,24.41-32.56,35-50,15.32-25.22,23.96-53.53,36-83,9.29-22.74,19.45-50.07,23-77h-55c-5.89,2.36-13.18,7.7-20,10-13.55,4.57-26.39,5.09-41,9-7.67,2.05-41.07,11.07-46,9-6.53-7.18-5.94-23.65-10-33-7.48-17.22-19.27-33.39-30-48-26.46-36.05-61.12-65.33-88-101-3.24-4.3-8.77-7.7-12-12-6.03-8.04-11.16-15.67-17-24-2.87-4.08-8.35-8.92-10-14v-73c-1.65-5.05-7.08-9.09-10-13-10.52-14.11-24.99-24.78-35-39-15.97-22.67-15.22-55-25-85-3.37-10.33-11.22-19.53-13-30,2.04-2.59,3.19-7.38,4-11h6c8.06,4.85,28.18.02,36,5,10.3,11.56,15.6,28.77,23,43,17.35,33.36,33.73,70.39,49,105,4.52,10.26,7.27,20.46,13,30,9.02,15.01,16.62,32.18,27,46q5.505,4.995,11,10c13.54,17.86,32.94,30.47,45,50,16.88,27.32,2,92.85,28,111,3.65,2.93,16.73,4.7,24,3,20.82-4.87,39.28-8.28,57-16,67.55-29.43,126.7-68.45,186-106q21.72-13.755,43-27c6.53-4.07,13.78-3.27,14-14,1.72-2.86.05-7.86,1-12,1.73-7.5,3.29-16.94,7-23,6.75-11.04,21.52-18.68,26-31-3.89-5.94-7.57-31.26-8-40-12.25-2.9-25.94-9.08-39-13-6.06-1.82-14.3-.7-19-4q-1.995-11.505-4-23c-4.39-10.63-13.61-14.55-21-22h-9c-10.3,21.07-29.92,48.4-60,49-7.5-11.41-29.56-27.37-41-36-8.4-6.33-15.56-15.56-23-23-32.01-32.01-55.56-63.53-60-124q33.99,1.995,68,4c0.03,29.61,21.91,45.73,38,60,3.64,3.23,15.95,17.65,19,19h27c5.08-3.05,13.88-1.3,20-3,13.79-3.84,27.64-11.5,42-13,4.64,10.13,21.06,40.8,29,46,7.59,4.97,17.56,5.05,27,8,24.91,7.8,73.92,11.01,104,4,19.79-4.61,43.53-2.67,64-8,4.62-1.2,24.11-.75,25,0,9.19,6.37,14.98,18.21,24,25,16.33,12.29,32.76,24.96,49,37,8.36,6.19,24.68,15.6,27,27-5.61,6.93-8.06,15.41-8,28,6.95,2.07,19.84,10.51,24,16,6.85-3.03,33.23-17.8,34-25,3.62-6.14.02-21.31,6-25,8.81,9.14,18.86,10.98,24,25,9.47,25.85-6.94,62.63,2,90,8.07,24.71,21.74,48.45,32,72,17.18,39.43,31.82,79.2,51,116,11.21,21.5,21.03,41.97,34,61,4.16,6.1,8.2,17.89,17,19,6.18-4.02,29.44-6.91,38-8,3.02-31.32,21.36-53.68,32-78,4.64-10.61,6.19-22.65,9-35,5.71-25.15-28.02-58.59-3-78,4.71-3.29,12.38-2.66,18-5a159.056,159.056,0,0,0,29-16c30.58-21.48,59.43-58.24,81-89,9.56-13.62,18.96-27.42,28-41,2.62-3.94,5.85-14.01,10-16h18c3.08-1.85,8.6.01,13-1,6.23-1.43,14.02-2.47,20-5,12.1-5.11,28.53-25.61,39-27,2.53,3.69,6.42,5.31,10,8q13.995,14.505,28,29c24.17,32.56,37.89,70.49,55,111,5.88,13.92,18.5,36.29,21,51h18c4.28-12.78,18-21.31,36-21,6.96,6.48,15.35,9.13,21,17,22.02,30.66,33.57,81.05,34,133h16q1.995-30.495,4-61c6.42-2.17,17.86-1.08,26-1,10.27,16.16,25.77,28.13,37,43,11.68,15.46,30.54,34.42,46,46,10.08,7.55,23.2,14.02,32,23,7.08-2.5,12.03-11.03,17-16l37-37q9-8.505,18-17v-33c-3.84-6.52-1.02-18.19-3-26-4.23-16.71-7.89-34.66-16-48-12.06-19.83-27.37-35.95-41-54-5.68-7.53-19.47-17.47-23-26v-30c1.83-2.97,6.02-23.86,7-28,19.33-11.1,37.52-24.05,62-30,12.08-2.94,34,17.72,40,16q4.005-4.5,8-9c10.04-7.58,20.63-16.08,32-22,23.93-12.47,53.98-16.87,84-23,1.45-13.74,6.15-26.56,15-33,5.12-3.73,11.27-6,15-11a135.009,135.009,0,0,0,14-24c19.25-43.74,16.43-102.33,6-153,6.23-4.81,12.75-14.31,17-21-9.09-7.18-14.27-20.39-21-30-12.93-18.47-25.84-37.3-39-56-6.15-8.74-23.07-23.05-24-35,2.69-4.67.36-13.42,2-19,3.05-10.36,14.25-30.94,27-31,4.35-2.83,14.7-2.98,21-3,0.17-8.13-1.5-11.66-3-17-15-1.75-27.49-10.43-43-12-3.52,10.7-14.25,19.58-20,29-23.22-11.8-28.84-37.24-46-54,6.43-27.16,27.45-44.66,42-64,3.87-5.14,7.79-14.52,15-16,5.75,3.543,16.62,1.144,22,5,3.6,5.87,3.25,35.9,5,45h5c7.42-9.55,32.55-21.44,49-13,8.61,4.41,16.02,12.36,25,17q1.995,22.995,4,46,14.505,1.995,29,4c-0.68,28.49,6.39,52.49,14,73,2.6,7.02,2.79,16.33,7,22,1.42,0.96,3.27.98,6,1,2.59-2.04,7.38-3.19,11-4,3.12-10.01,12.63-16.06,16-26-6.56-7.29-9.32-19-14-28-10.92-21-20.62-43.68-33-64-5.26-8.64-18.31-23.69-19-35,4.63-6.47,4.43-16.58,7-25,5.76-18.842,9.88-40.734,17-58,4.73-11.479,5.33-27.275,22-27,5.36-3.306,24.78-2.624,32-4v-2c2.94-4.811,3.84-29.751,6-37,4.61-15.456,19.45-55.432,14-77-5.42-21.453-16.38-40.343-25-60-7.71-17.567-14.73-34.289-22-54-1.72-4.658-6.88-15.561-5-20,1.05-5.295,2.18-8.026,9-8,5.65,5.208,15.92,8.605,23,12v-2c-4.04-4.386-5.47-11.114-9-16-5.36-7.411-13.6-13.5-18-22l-6-21c-4.8,1.253-23.6,12.189-25,11-8.38-2.694-23.75-14.972-32-20-6.42-3.912-13.32-5.525-20-9-14.46-7.516-29.57-15.617-43-24-6.67-4.168-27.21-14.766-30-21V523c-3.67-5.583-1-23.063-1-31,0-21.866-.01-43.364,5-60,1.43-4.751,1.17-13.951,5-16h11l30,3c21.61,5.326,42.79,12.693,67,14v-1C7120.96,427.426,7114.04,407.18,7113,400Zm103,84c-2.28,3.394-5.49,4.778-7,9,11.37,9.312,16.15,27.084,24,40,26.05,42.851,55.64,119.7,108,133v-3c-3.93-5.367-4.2-13.551-7-20-5.45-12.555-11.82-26.258-19-38-11.74-19.2-24.76-37.977-38-56-6.71-9.143-16.21-17.014-23-26C7247.74,514.716,7224.79,487.108,7216,484Zm-16,200a70.116,70.116,0,0,0,3,22c6.64,4.177,12.12,8.706,22,10v-1q-3.495-8-7-16C7214.32,693.572,7206.06,687.052,7200,684Zm32,50c-2.05,3.054-4.63,4.161-6,8h1c3.2,3.045,9.28,5.756,14,7v-1C7237.54,744.121,7236.84,736.437,7232,734ZM5375,874q-1.995,21.5-4,43c-19.53-.166-29.04,8.938-40,17-1.4,1.029-5.15,1.671-6,3v13c18.81,9.65,30.89,30.416,42,48,13.31,21.08,26.49,43.79,37,68,4.02,9.26,5.39,18.2,9,28,7.16,19.42,13.21,47.2,8,73h-22c-6.21-3.69-23.72-1.08-32-3a759.926,759.926,0,0,0-76-14c-0.3-19.54,1.91-39.43,7-55,3.71-11.33,8.75-23.2,10-37-37.51-22.89-64.15-78.782-67-137,25.13-14.676,60.79-58.371,100-55C5354.17,867.132,5364.03,872.31,5375,874Zm-316,93c11.49,0.748,20.47,6.293,29,10,28.47,12.372,43.54,22.182,56,51,3.11,7.18,8.72,14.06,10,23-8.7,5.94-10.09,16.03-25,16-4.3,2.75-11.16,1.97-16,4-5.42,2.28-20.49,14.18-28,12-1.66-.48-4.39-3.3-6-4-15.63-6.76-43.24-19.8-70-14-11.4,2.47-23.85,1.93-35,5-25.47,7.02-50.34,12.84-83,13-1.74-3.57-3.95-8.72-7-11-3.99-2.98-7.61-2.16-9-8,2.69-4,2.28-8.81,4-14,3.23-9.72,6.74-20.24,11-30,10.19-23.355,24.81-42.91,39-62,5.1-6.868,15.37-23.95,25-25,4.58,2.875,26.91,3.927,34,4q1.995,23,4,46h13c6.27-10.361,3.13-45.55,3-62a2.909,2.909,0,0,0,1-1,64.08,64.08,0,0,0,33-12q3.495-4,7-8h15c6.87,8.293,11.39,2.712,11,20q-1.995,9-4,18C5067.34,947.773,5060.71,955.528,5059,967Zm-284,249c10.43-.31,31.7-16.18,33-26-7.05-7.74-15.95-30.56-21-41,3.91-3.11,5.04-7.87,8-12,7.13-9.94,31.11-35.66,45-37,2.11,1.65,5.93,2.37,9,3,14.05,30.59,22.52,71.75,26,113,15.32-.01,29.46.18,43-3,6.79-1.6,17.72-5.04,27-3,9.02,1.99,17.68,5.28,27,6,9.17-13.68,29.66-17.31,47-23,4.01-1.32,15.68-6.98,19-5,5.45,3.61,4.3,13.9,4,23q-2.505,18-5,36c-7.02,24.86-17.18,47.77-25,71-2.82,8.37-3.47,24.5-8,31-1.02.8-.27,0.35-2,1-8.12,5.42-27.51,5.88-38,9-14.59,4.34-58.11,17.97-78,13-42.37-10.59-74.45-33.51-128-34,0.27,22.03-10.57,39.11-20,52-3.7,5.05-7.85,12.66-15,14-7.55-7.36-19.07-11.09-28-17-20.23-13.38-40.33-28.14-60-42-10.69-7.53-27.2-11.61-27-30-2.42-3.91.16-11.57-1-17-2.77-12.97-3-29.89-3-44-10.93.37-19.71,7.35-28,11-22.35,9.83-40.9,20.35-59,34-7.66,5.77-14.04,20.57-25,22-4.58-2.87-26.91-3.93-34-4v-13c38.19-25.25,63.37-85.43,82-131q7.5-24.99,15-50c1.73-6.21.17-15.98,5-19,7.16-4.57,21.85-5.45,30-9,15.91-6.93,28.75-21.04,48-24,5.13,26.77,22.14,51.3,41,65,3.8,2.76,20.34,15.7,25,13,5.11-3.36,4.31-11.41,4-20-16.76-10.85-39.2-40.27-46-61-3.68-11.22-3.28-33.97,9-35,4.43,2.78,26.25,3.86,33,4,5.52,10.75,12.26,38.88,21,45,7.04,5.04,24.24.68,30,7,6.92,9.22,4.92,24.91,8,38C4769.49,1154.54,4771.39,1187.49,4775,1216Zm-113,1c-1.32,7.54-7.03,15.57,2,20,2.94-3.62,8.11-4.31,10-9Q4668,1222.495,4662,1217Zm2079,899v-38c-1.36-3.99-5.85-8.49-8-12-5.51-8.99-10.29-19.09-15-28-22.98-43.46-43.94-95.91-89-117-0.37,7.41-5.26,20.07-3,25,7.07,9.59,17.97,17.04,25,27,21.62,30.61,37.19,66.65,55,101,5.39,10.39,10.55,21.91,15,32,1.29,2.92,1.46,8.63,4,10h16ZM5660,3690c204.68-.85,429.75-1.81,547,85,6.28,4.65,11.48,11.48,17,17,39.48,39.51,57.54,85,79,143,7.41,20.04,13.91,42.36,20,64,3.33,11.82,2.17,22.31,5,35,2.33,10.44,4.91,30.96,2,44-3.85,17.22-5.62,35.28-9,51-30.2,15.28-77.66,24.82-122,14-9.44-2.3-21.02-1.07-28-6-18.05-18.58-26.68-62.46-36-91-20.1-61.57-35.21-117.43-92-142-17.92-7.75-38.49-9.28-60-14-11.04-2.42-23.74.23-34-2h-22l-54-3c-75.87-17.12-161.83-23.99-255-24-18.97,0-42.93-2.7-60,1-10.33,2.24-23.92-.97-33,1-7.15,1.55-17.1-.28-23,1l-62,3c-12.75,2.82-27.38.91-41,4-28.05,6.37-58.38,7.9-84,15-17.47,4.84-34.15,4.48-52,9-33.96,8.6-63.09,16.2-87,34-21.68,16.13-39.98,49.07-51,76-4.94,12.08-6.04,23.8-10,37-6.51,21.73-7.66,47.73-13,72-2.79,12.67-.44,26.16-3,38q-0.495,30-1,60c-4.8,22.43,0,50.67,0,74,0,55.95,2,109.83,2,167-0.01,98.54.03,194.22,30,262,26.53,59.99,90.85,85.1,159,104,27.2,7.54,57.21,6.71,86,13q36,1.995,72,4h33c18.06,3.86,44.74.62,63,0,20.23-.68,42.26-0.86,61-1,11.28-.09,25.41,1.08,35-1h36c22.13-.1,47.34-1,71-1,13.72,0,31.04,1.59,43-1h21q31.5-1.005,63-2l63-6c53.69-12.38,99.32-16.85,138-44,21.21-14.89,35.22-37.65,44-65,4.86-15.14,4.07-30.29,8-47,8.93-37.95,10.17-70.45,30-97,16.73-22.41,65.05-23.36,105-22,18.4,0.63,32.76,5.65,48,9,8.8,18.23,16.3,33.04,22,56,5.18,20.85,1.81,50.04-3,68-3.18,11.87-3.32,21.91-7,33-10.16,30.61-23.81,59.29-36,87-11.5,26.13-21.92,54.34-41,73-28.51,27.88-59.95,54.88-99,72-113.07,49.58-288.36,57.99-450,58h-78c-12.16,0-27.56,1.3-38-1-14.45-3.18-32.79,1.91-46-1h-17c-15.76,0-34.58,1.17-49-2q-25.995-.495-52-1l-169-9q-21.495-4.005-43-8c-57.67-18.71-111.24-38.87-155-71-55.57-40.8-87.9-100.32-112-173-7.52-22.69-11.53-46.82-18-70-9.21-32.98-9.19-68.83-17-103q-4.5-50.49-9-101-0.495-22.5-1-45c-4.13-19.21-1-45.84-1-67,0-15.86-2.09-35.96,1-50v-21q1.5-27.495,3-55c3.88-17.35.87-36.85,5-55,8.91-39.15,9.06-81.99,19-119,3.11-11.59,2.77-21.61,6-33,15.22-53.6,27.77-108.83,54-152,24.6-40.49,54.56-69.38,95-94,11.99-7.3,24.7-11.21,38-17,41.99-18.27,90.46-30.94,139-43,19.85-4.93,42.17-.4,63-5,13.15-2.9,28.09-.81,42-4q13.5-2.505,27-5c3-.99,7.15-4.12,10-5h57c17.01-.05,42.56,1.62,59-2,14.13-3.11,32.11,1.84,45-1,14.76-3.26,33.47,1.98,47-1C5613.1,3688.11,5651.56,3695.23,5660,3690Zm-5099,5H726c23.416,0,60.464-3.55,81,1h16c17.7,0,40.175-2.5,56,1h35c24.612,5.47,54.075-.31,78,5q13,0.495,26,1l78,9,64,12c59.75,16.96,112.71,34.47,156,67,44.44,33.39,68.72,109.39,86,171,4.97,17.73,3.83,37.27,8,56v17c0,22.7-4.15,40.76-5,60-33.84,19.23-117.77,38.35-157,10-23.44-16.94-18.08-62.35-28-93-13.18-40.72-33.66-80.28-67-101-25.22-15.68-56.61-23.47-89-32q-23.505-3.495-47-7-39.5-2.505-79-5H799c-16.661-.93-39.34-1.06-56-2H710c-16.859-3.58-41.367-2-60-2H630c-14.791-3.11-64.263-3.2-79,0H534q-23,1.005-46,2c-12.285,2.7-26.1,1.01-39,4-33.325,7.72-66.138,11.57-94,23-25.737,10.56-60.812,25.94-76,46-13.592,17.96-27.255,36.03-35,60-2.79,8.63-3.03,17.89-5,27-1.6,7.38-.265,20.18,1,26q0.5,11.505,1,23c2.889,12.83,5.389,26.89,9,38,9.108,28.03,18.445,49.28,34,70,33.09,44.07,105.106,57,169,71q32,0.495,64,1c20.762,4.51,44.02,4,69,4h51c29,6.78,64.9,9,100,9h62c14.937,3.25,37.769.62,53,2h18c10.548,2.3,22.768.47,34,3q28.5,4.995,57,10c11.21,2.45,53.1,1.13,63-1,15.73-3.38,48.86,3.14,62,6,11.26,2.45,53.06,1.14,63-1h18c24.02,0,46.34.86,65,7,92.11,30.3,163.87,88.52,199,176,7.73,19.24,4.11,45.58,10,67,4.51,16.39,8.74,35.01,13,52q1.005,9.495,2,19c1.69,7.47,4.94,27,3,36-5.78,26.76-6.99,51.26-13,77l-3,27c-7.11,29.2-11.8,54.74-27,75-9.35,12.46-25.4,22.68-38,32-10.06,7.44-19.68,16.76-30,24-23.32,16.37-47.82,29.4-74,43-41.72,21.68-88.07,37.27-137,53-27.94,8.98-58.68,11.02-88,18l-81,9q-16,.495-32,1c-13.42,2.89-29.763,2-45,2H874c-11.676,2.5-28.577,1-42,1s-30.337,1.52-42-1H674c-13.721,0-31.039,1.59-43-1H589q-49.5-2.505-99-5c-10.724-2.37-23.216-.38-35-3-36.467-8.11-79.664-3.93-115-12l-32-3c-48.077-11.46-96.472-26.84-138-45-48.735-21.31-90.485-57.49-117-101-11.539-18.94-15.887-42.95-25-64-2.919-6.74-9.366-13.65-12-20-3.915-9.45-1.59-19.73-4-30-8.232-35.07-11.6-90.58,2-122,10.285-23.76,30.829-38.98,65-39H96c14,3.1,28.846,6.02,41,10,9.732,3.18,20.979,3.65,29,9,5.066,3.38,7.072,12.36,10,18,9.017,17.38,15.193,35.27,22,56,17.361,52.88,32.074,104.81,75,132,22.463,14.23,48.036,18.1,79,25q10.5,0.495,21,1,30,3.495,60,7c74.261,18.78,172.926,15.99,267,16q58.993,0.495,118,1c18.354,0,41.528,2.57,58-1h28q34-1.995,68-4c11.944-2.66,25.532-1.92,38-5,18.96-4.69,38.54-8.34,57-13,29.96-7.57,63.02-4.91,91-14,36.86-11.98,60.6-34.74,79-65,47.96-78.87,23.65-221.46-51-254-29.14-12.7-62.75-16.11-98-24q-29.49-2.505-59-5-35-.495-70-1c-13.921-3.01-33.893-.18-48,0-19.087.24-42.8-2.7-60,1H799c-13.461,2.84-56.58,2.91-70,0q-20.5-1.005-41-2c-24.782-5.56-51.4-8.44-74-14q-56.495-1.005-113-2c-11.358-2.5-29.5-.31-41-2H444c-29.975-7.13-63.274-13.69-93-21H310a245.015,245.015,0,0,1-28-9c-102.761-41.99-176.046-105.55-218-208-9.921-24.23-14.239-52.03-21-79-11.845-47.25-8.579-116.15,4-158,8.1-26.95,12.6-52,23-76,21.612-49.85,61.5-87.81,106-115,41.19-25.17,91.732-36.55,145-50,29.458-7.44,61.524-5.35,92-12q51-2.505,102-5C524.411,3695.96,555.274,3698.58,561,3695Zm7026,13c18.35-.22,38.19.79,55,1,17.72,0.22,36.58-1.36,52,2h14c12.17,2.68,27.33,2.29,39,5,13.53,3.14,39.76,2.69,49,9,20.38,20.9,27.62,70.5,18,107-2.31,8.77-1.34,19.44-6,26-12.49,12.44-35.21,13.78-55,19-53.32,14.06-138.69,6-202,6H7205c-62.86,0-128.86,2.43-190-1q-28.995-.495-58-1c-13.99-2.99-49.02-3.02-63,0-10.58,2.28-22.11.04-31,2-20.64,4.55-39.59,2.93-53,14-13.81,11.4-15.86,43.85-21,65-8.29,34.09-10,75.32-10,116,0,17.12-2.3,38.72,1,54v16c3.36,15.52,2.36,32.7,7,47,22.96,70.7,136.83,54,227,54h518c64.2,0,170.96-14.98,213,13,29.95,19.94,34.31,89.17,18,129-9.73,23.77-24.35,35.01-51,42-11.73,3.08-22.92.21-36,3-11.73,2.5-34.28,2.53-46,0h-21c-14.7-.5-34.71.08-49-3H7048c-16.2,0-36.62,2.09-51-1q-24.99-.495-50-1c-13.51-2.86-39.5-2.92-53,0q-13.005.495-26,1c-22.11,4.93-42.7,7.66-58,19-16.78,12.44-20.71,34.6-26,59v24c-1.29,6.12-.21,14.7,0,21v53c0,66.95,4.22,129.17,16,183,75.62,36.6,194.02,25,302,25h425c95.28,0,195.18-4.21,274,13,3.23,12.4,9.54,24.77,13,38,7,26.72,2.09,74.01-6,96-14.55,6.71-29.8,13.23-47,18-15.85,4.39-33.58,3.44-50,7h-16c-17.39,3.75-41.71,1-61,1q-66.495-1.005-133-2H6906c-20.83,0-49.75-1.92-68,2-6.83,1.47-16.41-.2-22,1q-25.5.495-51,1c-15.02,3.19-43.99,3.24-59,0q-15-.495-30-1c-28.53-6.3-53.6-8.55-73-23-17.59-13.1-16.48-41.45-22-67v-16c-3.85-18.02-1-43.07-1-63,0-47.54,3-90.83,3-139V4015c0-26.17,1.9-60.2-3-83v-23c-1.93-9.09,1.2-22.65-1-33-1.85-8.71-1.88-25.29,0-34q0.495-18,1-36c5.38-24.54,6.68-48.84,18-67,7.69-12.33,18.52-17.11,35-21q6.495-.495,13-1c3.76-.99,8.77-4.02,12-5h724c21.77,0,49.2,3.27,69-1,13.52-2.92,30.73,1.65,43-1,12.56-2.71,28.69,1.44,40-1C7546.99,3706.2,7577.73,3713.75,7587,3708Zm-5005,1c66.72-.95,141.08,1.08,192,18,80.03,26.59,134.58,72.65,175,139,13.13,21.56,19.69,46.88,29,72,12.75,34.41,20.58,71.37,30,110,3.83,15.71.48,33.54,4,50,1.79,8.36,1,20.98,1,31,0.01,24.59.75,49.5-4,70q-1.005,10.995-2,22-4.995,22.005-10,44c-35.9,107.9-106.72,193.42-207,237-13.56,5.89-28.35,6.28-45,10h-19c-15.93,0-32.13-.56-46,3-16.97,4.35-36.99,6.76-55,11-11.53,2.71-23.3,1.58-34,4-17.68,4-36.92.18-54,4q-30,.495-60,1c-17.05,3.74-41.05,1-60,1-13.99,0-31.79,1.73-44-1q-56.49-.495-113-1c-71.22,0-146.18-1-219-1H1918c-29.77-.37-68.39-4.33-89,8-8.2,4.91-12.69,13.08-18,21-7.12,10.62-11.2,8.49-11,28-3.48,5.7.63,17.5-1,25-2,9.21.6,22.35-1,33-1.48,9.84-1,23.54-1,35,0,49.89-1.01,101.72-1,153,0,49.47,5.99,113.14-23,134-11.64,8.38-25.93,13.32-42,17h-14c-4.64.88-16.25,0.28-22-1-16.72-3.73-51.56-3.86-62-12-12.13-13.11-16.02-39.36-21-59q-1.005-10.005-2-20c-6.07-26.71-5-59.42-5-91q1.5-79.485,3-159V4083q-0.495-87.99-1-176c0-23.08-2.42-51.68,2-72v-18c2.83-12.94.9-27.57,4-41q3.495-19.005,7-38c10.24-6.63,20.78-19.44,33-23,9.42-2.74,16.87,2.38,27,0,17.13-4.03,43.27-3,65-3h690c13.72,0,31.03,1.58,43-1,14.47-3.12,32.78,1.86,46-1C2536.72,3707.25,2573.81,3714.07,2582,3709Zm7588,2c41.8-.31,86.9-2.08,113,14,26.5,16.34,38.7,45.18,55,72,12.6,20.71,21.7,43.6,32,67,14.7,33.62,30,67.98,45,102,10.1,23.04,25.2,44.25,38,65,14.7,23.89,26.5,49.35,41,73,15.9,25.98,27.4,54.42,43,80,2.8,4.52,3.3,9.47,6,14,15.8,26.03,28,54.64,44,81,21.3,35.06,41.7,71.21,63,106,6.5,10.61,9.5,22.29,16,33,15,24.69,25.9,52.57,38,80a1255.1,1255.1,0,0,0,79,151c26.9,43.74,45,95.17,69,141,5.2,9.96,8.2,20.41,14,30,15.9,26.14,33.2,50.66,49,76,11,17.71,12.7,34.79,19,58-1.1,2.78-4.5,6.19-6,9-1.9,3.69-1,6.26-5,8-6.3,5.81-17.6,6.31-27,9-29.2,8.38-76.2,8.17-107,1-11.4-2.66-25.7-.54-35-6-2.8-1.64-8.1-11.1-11-14-7.3-7.33-16.8-13.66-23-22-7.6-10.24-12.2-21.86-19-33-20.4-33.39-38.8-69.8-59-103-6.9-11.27-10.6-23.56-16-36-6.2-14.09-15.1-28.2-24-40-18.9-25.18-64.2-31-108-31-22.3,0-47.2-2.27-67,2-15.2,3.29-31.9-1.04-46,2H9964c-22.69,0-51.3,3.47-72-1-12.81-2.76-26.58.46-38-2q-19.5-.495-39-1c-24.84-5.34-79.07-.11-98,6-80.37,25.95-95.94,141.52-137,209-17.2,28.27-32.12,55.69-64,69-30.87,12.89-92.89,10.8-125,1-12.31-3.76-25.58-6.59-32-16-19.2-28.14,10.62-77.15,21-97,43.17-82.61,89.54-163.59,133-246,34.8-65.97,67.58-133.18,102-199,12.78-24.45,24.54-49.11,37-73,4.85-9.3,7.56-19.05,13-28,19.23-31.66,33.79-67.46,53-99,5.75-9.45,8.26-19.55,14-29,16.46-27.09,29.32-56.6,46-84,26.17-42.97,50.94-87.21,77-130,8.11-13.31,12.61-28.43,19-43,12.69-28.91,27.36-59.18,40-88,8.6-19.62,16.47-38.68,27-56,11.89-19.56,22.35-46.76,40-60,15.3-11.47,29.8-9.09,51-15,4.4-1.23,9.4-5.02,13-6,3.2-.85,9.5,1.46,12,2,9.9,2.15,36.9,1.96,46,0,15.1-3.25,31.4.93,45-2C10154.7,3710.55,10165,3714.09,10170,3711Zm-6333,1c74.66,8.43,191.18-16.39,242,20,28.61,20.49,38.01,64.83,53,99,5.63,12.84,13.83,26.22,21,38,11.38,18.7,19.92,38.82,31,57,19.39,31.82,32.6,66.06,52,98,17.64,29.04,31.31,61.96,49,91,3.91,6.42,5.1,13.57,9,20,15.35,25.26,27.63,53.76,43,79,3.53,5.79,4.48,12.21,8,18,44.11,72.61,76.8,153.45,121,226,14.23,23.35,24.05,49.09,38,72,3.53,5.79,4.48,12.21,8,18,20.21,33.27,35.73,70.72,56,104,4.3,7.06,5.71,14.94,10,22,6.08,10.02,10.67,21.63,17,32,16.41,26.86,34.31,53.54,51,80,8.92,14.14,15.23,28.62,24,43,20.23,33.17,45.13,79.23,47,129-6.32,4.32-9.83,12.55-16,17-7.44,5.37-19.19,8.42-29,11-14.91,3.92-49.21,5.65-66,2q-13.5-1.005-27-2c-27.31-6.6-51.57-13.88-66-33-31.02-41.11-51.02-94.72-73-145-18.47-42.26-40.38-83.09-83-101-59.17-24.87-170.98-7-245-7H3552c-22.78,4.93-43.94,6.68-61,17-53.77,32.5-84.84,90.29-111,150-8.86,20.22-19.43,38.44-28,58-7.46,17.02-14.87,34.83-29,45-39.34,28.32-116.06,13.04-169,9-9.78-16.67-16.84-23.04-17-51,7.21-5.51,9.17-16,13-25,7.97-18.74,13.77-39.54,24-56,35.82-57.62,66.92-120.49,99-182,11.38-21.82,21.92-43.75,33-65,4.17-7.99,6.33-16.31,11-24,32.4-53.32,56.52-111.57,89-165,22.64-37.25,41.07-77.31,64-115,46.78-76.88,87.87-159.2,130-240,40.73-78.11,78.34-156.91,123-230,15.97-26.14,22.24-59.12,40-83,7.17-9.65,18.85-17.33,32-21C3809.19,3718.04,3827.68,3720.65,3837,3712Zm4325,0a214.5,214.5,0,0,1,59,7c8.41,2.25,18.77,1.43,25,6,11.14,12.03,13.15,32.74,18,51,15.44,58.14,7,140.35,7,209v512c0,19.61,2.81,44.3-1,62q-0.495,22.5-1,45c-3.73,17.55-2,39.17-2,59,0,48.29.98,96.36,21,125,33.5,47.93,151.09,28,225,28h511c68.7-.01,166.73-15.97,211,17,29.53,22,19.19,87.78,11,125-67.47,38.6-168.65,30-270,30-131.23,0-266.17-1-399-1H8452c-21.71,0-47.06-2.02-67,1h-84c-30.68,0-70.94,3.97-98-2-9.95-2.19-20.53-.12-29-2-17.53-3.9-55.03-1.57-66-10-3.77-4.1-4.6-9.36-7-15-5.67-13.33-10-29.29-14-45q-1.005-9.495-2-19c-3.17-13.65-1.82-31.51-5-46v-31c-3.23-14.95-.01-34.58,0-50q1.5-61.995,3-124V4092q-0.495-86.49-1-173,0.495-41.49,1-83,1.995-24.495,4-49,4.005-24.495,8-49c10.38-6.56,20.7-19.41,33-23C8138.55,3711.92,8154.19,3718.84,8162,3712Zm2987,0h720c172.2-.01,337.2-1.07,442,65,65.5,41.27,99.5,103.3,126,184,10.8,33,13.7,69.67,22,105,4.1,17.59-4.5,51.55-8,64-10.4,36.59-15.7,74.23-34,103-20.8,32.8-53.8,45.98-54,101,12.5,8.38,22.4,22.44,33,33,31.3,31.3,58.7,63.37,77,108,8.7,21.33,11.1,46.46,17,70,0.7,7,1.3,14,2,21,4.2,18.74,7.8,59.57,3,81-0.3,8.67-.7,17.33-1,26-4.9,21.51-5.2,43.55-11,64-10.6,37.41-22,76.12-41,106-8.9,14.05-22,25.74-32,39-9.9,13.12-26.6,24.2-40,34-29.5,21.65-59.8,40.17-99,53-75.2,24.62-181.9,19.15-278,19-184.8-.29-372.7-1-559-1q-81,.495-162,1c-26,0-59.2,3.06-82-2-9.7-.33-19.3-0.67-29-1-21.7-4.85-47.1-3.4-66-11-4.5-9.8-10.4-20.04-14-31-13.4-40.63-14-91.81-14-145,0-13.71-1.6-31.06,1-43,2.2-10-.9-23.24,1-32v-18c0-16-1.3-38.73,2-54V4064q-1.05-77.985-2-156c0-25.03-2.8-53.85,2-76,0.3-9.33.7-18.67,1-28,5.1-22.72,4.1-48.33,12-68,10.9-5.29,19.4-17.49,31-21C11125.7,3711.77,11141.2,3718.87,11149,3712ZM1854,3883c-3.15,2.96-6.57,3.05-11,5-10.5,4.63-21.97,11.78-28,21-8.97,13.7-12.65,33.09-17,51q-1.005,10.995-2,22c-1.48,6.67-1.51,17.05-3,24v21c-2.84,13.26-2.85,55.75,0,69v33c3.49,16.18,2.65,41.88,3,59,1.07,51.69-8.78,120.66,22,143,16.99,12.33,40.65,14.63,65,20q12.495,0.495,25,1c15,3.21,66.01,3.22,81,0l109-3h408c69.76,0.33,155.64,8.22,207-14,42.2-18.26,70.72-62.67,88-106,5.24-13.13,5.37-26.01,9-41,17.62-72.79-1.34-170.59-27-220-8.64-16.63-17.39-32.53-32-43-66.12-47.38-184.33-42-298-42H1854Zm2062,0c-2.92,3.48-8.14,2.42-12,5-14.55,14.98-23.71,35.84-35,54a966.27,966.27,0,0,0-63,120c-3.49,7.92-8.99,16.32-13,24-7.94,15.2-14.4,30.9-23,45-5.76,9.45-8.27,19.57-14,29-14.41,23.7-27.58,49.4-42,73-23.96,39.21-42,82.35-66,121-20.54,33.08-38.2,66.32-49,109-2.4,9.47-2.38,43.18,2,49,4.44,4.09,10.64,4.65,17,7,14.14,5.24,31.39,7.24,48,11,8.22,1.86,17.6.36,25,2h26c11.66,2.53,28.59,1,42,1h341c48.11,0.01,131.67,7.23,152-21,7.68-10.67,7.46-34.34,3-49-8.72-28.71-20.35-53.76-33-78-5.14-9.84-8.27-19.57-14-29-21.9-36.04-39.13-76.11-61-112-4.59-7.53-6.41-15.44-11-23-15.68-25.8-29.29-54.22-45-80-4.59-7.53-6.41-15.44-11-23-21.72-35.76-41.54-74.63-61-112C3993.1,3956.29,3986.85,3887.53,3916,3883Zm6213,0c-9.2,14.32-24.9,25.23-35,39-20.8,28.18-40.4,57.7-59,88-14.4,23.43-23.5,49.13-38,73-13.56,22.31-24.09,47.25-35,72-11.22,25.44-25.75,51.48-37,77-15.21,34.52-29.88,68.07-47,101-20.36,39.16-44.01,73.56-62,116-4.35,10.26-15.96,34.3-11,52,11.51,41.06,105.3,32,158,32,21.4,0,48.6-3.29,68,1,12.5,2.77,28.7-1.5,40,1,10.9,2.42,25.3-1.15,35,1q39,0.495,78,1c15.3,3.29,36.9,1,54,1,18.3,0,41.6,2.62,58-1,8.7-1.92,20.5.65,28-1q16.5-.495,33-1c24.6-5.47,52.2-4.19,75-10,8.6-2.19,19.5-.57,26-5,3.8-3.61,5.8-8.77,9-13,2.7-2.33,5.3-4.67,8-7v-13c-1.4-2.42-.1-6.4-1-10q-3-14.505-6-29c-7.7-23.22-16.9-47.13-29-67-35.3-57.94-76.7-111.72-105-176-21.7-49.12-44.6-98.53-66-147-12.3-27.83-24.6-54.83-40-80-14.1-23.01-30.1-44.74-46-66-7.9-10.53-20.6-18.12-28-29h-25Zm1187,0c-6.7,8.21-23.3,9.71-32,16-15.7,11.38-20.9,35.95-26,58-2.7,11.82.7,23.25-2,36-2.1,9.72-2.1,28.29,0,38,3.5,16.24-1.3,35.71,2,51v19c0.3,11,.7,22,1,33-1.6,7.45-1.6,21.55,0,29v18c3.7,17.15,5.2,37.05,17,46,36.2,27.5,108.3,24,171,24q22.5-.495,45-1c11.3,0,25.4,1.06,35-1h449c132.6,0.01,244.7-6.82,277-107,17.9-55.47,4.5-132.42-19-171-7-11.52-12.5-25.12-23-33-74.9-56.47-196.6-55-328-55h-567Zm713,532c-3.3,2.06-11.9,1-17,1h-40c-47,0-96.5,1-145,1h-507c-8.5,2.7-17,7.12-29,8-4.2,11.99-26.6,25.14-28,36-3.8,6.12-.3,16.93-2,25-2.8,13.27-1.1,30.52-4,44v19c-3.3,15.54-2,34.47-2,52v19c-2.2,10.28-1.5,41.48,1,53,0.7,13,1.3,26,2,39,6.8,30.8,8.3,60.83,24,82,20.7,27.86,98.7,26,149,26h53c12.8-2.76,31.4-1.99,45-2h17c8.1-1.75,20.6,1.02,30-1,21.3-4.58,58.8-1,83-1h331c72.7,0.13,146.8,6.78,201-16,58.3-24.53,95.2-71.22,115-134,6.2-19.78,4.1-47.64-1-66-2.6-9.23-2.2-17.14-5-26-9.5-29.52-18.9-58.11-35-81C12218.8,4427.22,12140.1,4415.44,12029,4415Z"/>
</svg>
